<?xml version="1.0" encoding="utf-8"?>
<!-- Generator: Adobe Illustrator 25.4.1, SVG Export Plug-In . SVG Version: 6.00 Build 0)  -->
<svg version="1.1" id="Calque_1" xmlns="http://www.w3.org/2000/svg" xmlns:xlink="http://www.w3.org/1999/xlink" x="0px" y="0px"
	 viewBox="0 0 512 340" style="enable-background:new 0 0 512 340;" xml:space="preserve">
<style type="text/css">
	.st0{fill:#003399;}
	.st1{fill:#FFCC00;}
</style>
<g>
	<path class="st0" d="M0.1-0.7v341.3h512V-0.7H0.1z M354.6,94.1l4.3,13.1h13.8l-11.1,8.1l4.3,13.1l-11.1-8.1l-11.1,8.1l4.3-13.1
		l-11.1-8.1h13.8L354.6,94.1z M124.3,164.1H138l4.3-13.1l4.3,13.1h13.8l-11.1,8.1l4.3,13.1l-11.1-8.1l-11.1,8.1l4.3-13.1
		L124.3,164.1z M168.7,242.2l-11.1-8.1l-11.1,8.1l4.3-13.1l-11.1-8.1h13.8l4.3-13.1l4.3,13.1h13.8l-11.1,8.1L168.7,242.2z
		 M164.4,115.3l4.3,13.1l-11.1-8.1l-11.1,8.1l4.3-13.1l-11.1-8.1h13.8l4.3-13.1l4.3,13.1h13.8L164.4,115.3z M210.3,283.9l-11.1-8.1
		l-11.1,8.1l4.3-13.1l-11.1-8.1h13.8l4.3-13.1l4.3,13.1h13.8l-11.1,8.1L210.3,283.9z M206.1,73.7l4.3,13.1l-11.1-8.1L188,86.8
		l4.3-13.1l-11.1-8.1h13.8l4.3-13.1l4.3,13.1h13.8L206.1,73.7z M267.2,299.1l-11.1-8.1l-11.1,8.1l4.3-13.1l-11.1-8.1h13.8l4.3-13.1
		l4.3,13.1h13.8L263,286L267.2,299.1z M263,58.4l4.3,13.1l-11.1-8.1l-11.1,8.1l4.3-13.1L238,50.3h13.8l4.3-13.1l4.3,13.1h13.8
		L263,58.4z M324.1,283.9l-11.1-8.1l-11.1,8.1l4.3-13.1l-11.1-8.1h13.8l4.3-13.1l4.3,13.1H331l-11.1,8.1L324.1,283.9z M319.9,73.7
		l4.3,13.1L313,78.7l-11.1,8.1l4.3-13.1l-11.1-8.1h13.8l4.3-13.1l4.3,13.1H331L319.9,73.7z M365.8,242.2l-11.1-8.1l-11.1,8.1
		l4.3-13.1l-11.1-8.1h13.8l4.3-13.1l4.3,13.1h13.8l-11.1,8.1L365.8,242.2z M381,185.3l-11.1-8.1l-11.1,8.1l4.3-13.1l-11.1-8.1h13.8
		l4.3-13.1l4.3,13.1h13.8l-11.1,8.1L381,185.3z"/>
	<polygon class="st1" points="256.1,37.2 251.8,50.3 238,50.3 249.2,58.4 244.9,71.6 256.1,63.5 267.2,71.6 263,58.4 274.1,50.3 
		260.3,50.3 	"/>
	<polygon class="st1" points="260.3,277.9 256.1,264.8 251.8,277.9 238,277.9 249.2,286 244.9,299.1 256.1,291 267.2,299.1 263,286 
		274.1,277.9 	"/>
	<polygon class="st1" points="142.3,177.2 153.4,185.3 149.2,172.2 160.3,164.1 146.6,164.1 142.3,151 138,164.1 124.3,164.1 
		135.4,172.2 131.2,185.3 	"/>
	<polygon class="st1" points="199.2,52.5 194.9,65.6 181.2,65.6 192.3,73.7 188,86.8 199.2,78.7 210.3,86.8 206.1,73.7 217.2,65.6 
		203.4,65.6 	"/>
	<polygon class="st1" points="157.5,94.1 153.3,107.2 139.5,107.2 150.7,115.3 146.4,128.4 157.5,120.3 168.7,128.4 164.4,115.3 
		175.6,107.2 161.8,107.2 	"/>
	<polygon class="st1" points="161.8,221 157.5,207.9 153.3,221 139.5,221 150.7,229.1 146.4,242.2 157.5,234.1 168.7,242.2 
		164.4,229.1 175.6,221 	"/>
	<polygon class="st1" points="203.4,262.7 199.2,249.6 194.9,262.7 181.2,262.7 192.3,270.8 188,283.9 199.2,275.8 210.3,283.9 
		206.1,270.8 217.2,262.7 	"/>
	<polygon class="st1" points="374.1,164.1 369.9,151 365.6,164.1 351.8,164.1 363,172.2 358.7,185.3 369.9,177.2 381,185.3 
		376.7,172.2 387.9,164.1 	"/>
	<polygon class="st1" points="313,52.5 308.7,65.6 294.9,65.6 306.1,73.7 301.8,86.8 313,78.7 324.1,86.8 319.9,73.7 331,65.6 
		317.2,65.6 	"/>
	<polygon class="st1" points="347.7,115.3 343.5,128.4 354.6,120.3 365.8,128.4 361.5,115.3 372.6,107.2 358.9,107.2 354.6,94.1 
		350.4,107.2 336.6,107.2 	"/>
	<polygon class="st1" points="358.9,221 354.6,207.9 350.4,221 336.6,221 347.7,229.1 343.5,242.2 354.6,234.1 365.8,242.2 
		361.5,229.1 372.6,221 	"/>
	<polygon class="st1" points="317.2,262.7 313,249.6 308.7,262.7 294.9,262.7 306.1,270.8 301.8,283.9 313,275.8 324.1,283.9 
		319.9,270.8 331,262.7 	"/>
</g>
</svg>
