<?xml version="1.0" encoding="utf-8"?>
<!-- Generator: Adobe Illustrator 26.0.3, SVG Export Plug-In . SVG Version: 6.00 Build 0)  -->
<svg version="1.1" id="レイヤー_1_xA0_Image_1_"
	 xmlns="http://www.w3.org/2000/svg" xmlns:xlink="http://www.w3.org/1999/xlink" x="0px" y="0px" viewBox="0 0 432 180"
	 style="enable-background:new 0 0 432 180;" xml:space="preserve">
<style type="text/css">
	.st0{fill:#D8DADB;}
	.st1{fill:#BD8A16;}
</style>
<g>
	<g>
		<polygon class="st0" points="309.2,21.5 285.3,102.9 260.9,102.9 278.4,44.4 		"/>
		<path class="st0" d="M78.9,47.1c0,0-2.1-3-3.3-4.7c-2.4-3.3-5.5-8.4-6.6-15c-4.6,0-32.8,0-32.8,0l23.7,32.9L78.9,47.1z"/>
		<path class="st0" d="M194.2,44.7c-0.6-0.8-1.2-1.7-1.6-2.3c-2.4-3.3-5.5-8.4-6.6-15c-4.6,0-32.8,0-32.8,0l22,30.6L194.2,44.7z"/>
		<path class="st0" d="M92.7,64.8l27,38.2c0,0-27,0-30.3,0L72.2,79L38,102.9c-5,0-25.6,0-25.6,0s72-50.3,78.2-54.6
			c5.9-4.1,18.9-15.1,22.2-20.8c6.2,0,33.2,0,33.2,0L92.7,64.8z"/>
		<path class="st0" d="M182.1,81.2L151,102.9c-5,0-26.7,0-26.7,0s26.8-18.7,49.1-34.3L182.1,81.2z"/>
		<path class="st1" d="M253.1,102.9h-46.7l-26.7-38.7l71.6-49.9h47.1l-70.9,52.6L253.1,102.9z M212.9,66.3l60-44.6h-16.3l-62,43.3
			l21,30.5h18.1L212.9,66.3z"/>
		<path class="st0" d="M418.8,51.6c2.9-10.5-2.3-24.7-19.9-24.7c-6.3,0-49.3,0-49.3,0c-6.3,0-12.3,2.2-18.1,6.7
			c-5.8,4.5-9.6,9.8-11.4,16.1c0,0-5.1,17.3-8,27.5c-4.2,14.5,4.3,25.7,19.2,25.7c4.4,0,49.7,0,49.7,0c6.3,0,12.3-2.2,18.1-6.7
			c5.8-4.5,9.6-9.8,11.4-16.1C410.5,80.1,414.7,66.4,418.8,51.6z M372.6,88.9h-29.2c-4.7,0-9.9-2.2-7.6-9.4
			c2.2-7.2,8.8-29.9,8.8-29.9c1.2-3.7,5.9-8.8,13.4-8.8h28.7c6,0,8.9,4.4,7.7,8.3c-1.2,3.9-9.5,32.4-9.5,32.4
			C383.7,85.3,378.4,88.9,372.6,88.9z"/>
	</g>
</g>
<g>
	<path class="st0" d="M96.1,165l4.9-25h16.4l-0.8,4.1c-1.8-0.8-3.6-1.1-7.8-1.1h-2.9l-1.5,7.8h7.5l-0.6,3h-7.5l-1.6,8.1h2.9
		c4.2,0,6.1-0.4,8.2-1.1l-0.8,4.1H96.1z"/>
	<path class="st0" d="M139.5,140h3.1l-3.2,16.4c-1.2,6.4-5.4,9.2-11.3,9.2c-6.8,0-9.5-4.3-8.2-11.2l2.8-14.4h5.5l-2.7,14.2
		c-0.8,4.2-0.5,7.6,4.5,7.6c3.3,0,5.6-2.1,6.5-6.7L139.5,140z"/>
	<path class="st0" d="M158.4,165l-4.2-10.1l-2.5-0.2l-2,10.4h-5.6l4.9-25l9.2-0.1c5.6-0.1,8.2,2.7,8.2,6.1c0,4-2.9,6.7-6.8,8l4.6,11
		H158.4z M154,142.9l-1.6,8.4c0.8,0.2,2,0.3,2.9,0.3c2.7,0,5.4-1.7,5.4-4.9c0-2.3-1.6-3.8-4.6-3.8H154z"/>
	<path class="st0" d="M184.2,139.4c6.7,0,10.8,4.4,10.8,10.8c0,8.3-6.2,15.4-14.5,15.4c-6.8,0-10.8-4.4-10.8-10.8
		C169.6,146.5,175.8,139.4,184.2,139.4z M183.8,142.3c-5.8,0-8.4,8.1-8.4,13.5c0,4.3,1.7,6.9,5.3,6.9c5.8,0,8.4-8.1,8.4-13.5
		C189.2,144.9,187.5,142.3,183.8,142.3z"/>
	<path class="st0" d="M197.8,165l4.8-24.9l8.3-0.2c5.8-0.1,9.1,2.9,9.1,7.1c0,5.6-5.5,9-11.4,9c-1,0-2.4,0-3.6-0.2l-1.8,9.2H197.8z
		 M207.6,142.9l-1.9,9.9c0.7,0.2,1.8,0.3,2.4,0.3c3.4,0,6.1-2.4,6.1-5.8c0-2.5-1.9-4.4-4.7-4.4H207.6z"/>
	<path class="st0" d="M222,165l4.9-25h16.4l-0.8,4.1c-1.8-0.8-3.6-1.1-7.8-1.1h-2.9l-1.5,7.8h7.5l-0.6,3h-7.5l-1.6,8.1h2.9
		c4.2,0,6.1-0.4,8.2-1.1l-0.8,4.1H222z"/>
	<path class="st0" d="M270.8,165.7l-2.4-2.8c-2.2,1.6-4.9,2.8-8.5,2.8c-5.5,0-8.1-2.8-8.1-6.2c0-3.4,2.2-6,5.9-7.7l0.8-0.4
		c-1.4-1.6-2-3.4-2-5c0-3.9,3-6.9,8.5-6.9c4.8,0,7.3,2.4,7.3,5.4c0,3-2.7,5.5-6.4,6.7l-0.6,0.2l4.3,5c0.5-1.1,0.8-2.4,0.8-3.6
		c0-0.6,0-1-0.1-1.5h4.9c-0.3,2.5-1.4,5.4-3.2,7.8l4.2,4.9L270.8,165.7z M260.1,153.3c-1.8,1.2-3,2.8-3,4.8c0,2.4,1.9,4.3,4.7,4.3
		c1.9,0,3.4-0.7,4.7-1.6L260.1,153.3z M263.9,149.5c1.8-0.8,3.2-2.6,3.2-4.5c0-1.5-0.7-2.7-2.3-2.7c-1.8,0-3.1,1.5-3.1,3.4
		c0,1.2,0.5,2.4,1.4,3.5l0.4,0.4L263.9,149.5z"/>
	<path class="st0" d="M308.4,140h3.1l-3.2,16.4c-1.2,6.4-5.4,9.2-11.3,9.2c-6.8,0-9.5-4.3-8.2-11.2l2.8-14.4h5.5l-2.7,14.2
		c-0.8,4.2-0.5,7.6,4.5,7.6c3.3,0,5.6-2.1,6.5-6.7L308.4,140z"/>
	<path class="st0" d="M328.1,165l-5.3-11l-2.4,2l-1.7,8.9h-5.6l4.9-25h5.5l-2.2,11.5l13.3-11.5h4.4L327,150.3l7.1,14.7H328.1z"/>
</g>
</svg>
