<?xml version="1.0" encoding="utf-8"?>
<!-- Generator: Adobe Illustrator 25.4.1, SVG Export Plug-In . SVG Version: 6.00 Build 0)  -->
<svg version="1.1" id="Calque_1" xmlns="http://www.w3.org/2000/svg" xmlns:xlink="http://www.w3.org/1999/xlink" x="0px" y="0px"
	 viewBox="0 0 512 340" style="enable-background:new 0 0 512 340;" xml:space="preserve">
<style type="text/css">
	.st0{fill:#1D2A75;}
	.st1{fill:#FFFFFF;}
	.st2{fill:#CE1128;}
</style>
<g>
	<polygon class="st0" points="570.2,296.6 570.2,237.9 452.2,237.9 	"/>
	<polygon class="st0" points="187.8,0 21.4,0 187.8,82.4 	"/>
	<polygon class="st0" points="-58.2,42.7 -58.2,101.8 60.9,101.8 	"/>
	<polygon class="st0" points="186,237.9 9.1,340 187.8,340 187.8,237.9 	"/>
	<polygon class="st0" points="570.2,101.8 570.2,44.2 469.9,101.8 	"/>
	<polygon class="st0" points="499.2,0 324.2,0 324.2,100.4 	"/>
	<polygon class="st0" points="-58.2,237.9 -58.2,293.1 37.7,237.9 	"/>
	<polygon class="st0" points="324.2,340 490.8,340 324.2,257 	"/>
	<polygon class="st1" points="214.8,211.2 206.4,211.2 162.7,211.2 84.6,211.2 -58.2,211.2 -58.2,237.9 37.7,237.9 -58.2,293.1 
		-58.2,339.5 116.4,237.9 160,237.9 -14.8,340 9.1,340 186,237.9 187.8,237.9 187.8,340 214.8,340 214.8,221.4 	"/>
	<polygon class="st1" points="569.6,0 394.1,101.8 350.4,101.8 525.9,0 499.2,0 324.2,100.4 324.2,0 297.2,0 297.2,115.9 
		297.2,119.6 297.2,128.8 302.5,128.8 304,128.8 347.7,128.8 423,128.8 570.2,128.8 570.2,101.8 469.9,101.8 570.2,44.2 570.2,0 	
		"/>
	<polygon class="st1" points="147.8,128.8 197.7,128.8 214.8,128.8 214.8,95.8 214.8,0 187.8,0 187.8,82.4 21.4,0 -58.2,0 
		-58.2,3.5 142.7,101.8 92.7,101.8 -58.2,27.9 -58.2,42.7 60.9,101.8 -58.2,101.8 -58.2,128.8 115.2,128.8 	"/>
	<polygon class="st1" points="365.5,211.2 315.6,211.2 303,211.2 297.2,211.2 297.2,222.7 297.2,243.5 297.2,340 324.2,340 
		324.2,257 490.8,340 570.2,340 570.2,335.8 370.6,237.9 420.5,237.9 570.2,311.3 570.2,296.6 452.2,237.9 570.2,237.9 570.2,211.2 
		397.9,211.2 	"/>
	<polygon class="st2" points="347.7,128.8 304,128.8 302.5,128.8 297.2,128.8 297.2,119.6 297.2,115.9 297.2,0 214.8,0 214.8,95.8 
		214.8,128.8 197.7,128.8 147.8,128.8 115.2,128.8 -58.2,128.8 -58.2,211.2 84.6,211.2 162.7,211.2 206.4,211.2 214.8,211.2 
		214.8,221.4 214.8,340 297.2,340 297.2,243.5 297.2,222.7 297.2,211.2 303,211.2 315.6,211.2 365.5,211.2 397.9,211.2 570.2,211.2 
		570.2,128.8 423,128.8 	"/>
	<polygon class="st2" points="116.4,237.9 -58.2,339.5 -58.2,340 -14.8,340 160,237.9 	"/>
	<polygon class="st2" points="394.1,101.8 569.6,0 525.9,0 350.4,101.8 	"/>
	<polygon class="st2" points="142.7,101.8 -58.2,3.5 -58.2,27.9 92.7,101.8 	"/>
	<polygon class="st2" points="370.6,237.9 570.2,335.8 570.2,311.3 420.5,237.9 	"/>
</g>
</svg>
